<?xml version="1.0" encoding="iso-8859-1"?>
<!-- Generator: Adobe Illustrator 19.0.0, SVG Export Plug-In . SVG Version: 6.00 Build 0)  -->
<svg version="1.1" id="Layer_1" xmlns="http://www.w3.org/2000/svg" xmlns:xlink="http://www.w3.org/1999/xlink" x="0px" y="0px"
	 viewBox="0 0 496 496" style="enable-background:new 0 0 496 496;" xml:space="preserve">
<path style="fill:#9DA7B2;" d="M496,320.8c0,96.8-78.4,175.2-175.2,175.2H175.2C78.4,496,0,417.6,0,320.8V175.2
	C0,78.4,78.4,0,175.2,0h145.6C417.6,0,496,78.4,496,175.2V320.8z"/>
<path style="fill:#8B96A0;" d="M0,175.2C0,78.4,78.4,0,175.2,0h145.6C417.6,0,496,78.4,496,175.2v145.6
	c0,96.8-78.4,175.2-175.2,175.2"/>
<g>
	<path style="fill:#78858E;" d="M320.8,0C417.6,0,496,78.4,496,175.2v145.6c0,96.8-78.4,175.2-175.2,175.2"/>
	<path style="fill:#78858E;" d="M348.8,208l-11.2,10.4c-4.8,4.8-4.8,11.2,0,16c2.4,2.4,5.6,3.2,8,3.2s5.6-1.6,8-3.2l31.2-31.2
		c2.4-2.4,3.2-4.8,3.2-8s-1.6-6.4-3.2-8L353.6,156c-4.8-4.8-12-4.8-16.8,0s-4.8,12.8,0,17.6l11.2,12h-76.8c-4.8,0-8.8,3.2-10.4,7.2
		l-60,127.2h-82.4c-6.4,0-12,6.4-12,12.8s5.6,11.2,12,11.2H216c4.8,0,8.8-7.2,10.4-11.2L288,208H348.8z"/>
	<path style="fill:#78858E;" d="M118.4,208H200l4.8,8c1.6,4,6.4,5.6,10.4,5.6c1.6,0,3.2-0.8,4.8-1.6c5.6-2.4,8-9.6,5.6-16l-8-15.2
		c-0.8-3.2-5.6-4.8-9.6-4.8h-89.6c-6.4,0-12,5.6-12,12C107.2,202.4,112,208,118.4,208z"/>
	<path style="fill:#78858E;" d="M354.4,288c-4.8-4.8-12-4.8-16.8,0s-4.8,13.6,0,18.4l11.2,13.6H280l-9.6-20.8
		c-2.4-5.6-9.6-8.8-15.2-6.4s-8,9.6-5.6,15.2l12.8,32c1.6,4,6.4,4.8,10.4,4.8h76.8l-11.2,5.6c-4.8,4.8-4.8,12.8,0,17.6
		c2.4,2.4,5.6,4,8,4s5.6-0.8,8-3.2l31.2-31.2c2.4-2.4,3.2-4.8,3.2-8s-1.6-6.4-3.2-8L354.4,288z"/>
</g>
<g>
	<path style="fill:#FFFFFF;" d="M348.8,192l-11.2,12c-4.8,4.8-4.8,12,0,16.8c2.4,2.4,5.6,3.2,8,3.2s5.6-0.8,8-3.2l31.2-31.2
		c2.4-2.4,3.2-4.8,3.2-8s-1.6-6.4-3.2-8l-31.2-31.2c-4.8-4.8-12-4.8-16.8,0s-4.8,11.2,0,16l11.2,11.2h-76.8c-4.8,0-8.8,3.2-10.4,7.2
		l-60,127.2h-82.4c-6.4,0-12,5.6-12,12s5.6,12,12,12H208c4.8,0,8.8-3.2,10.4-7.2L280,192H348.8z"/>
	<path style="fill:#FFFFFF;" d="M118.4,192H200l4.8,9.6c1.6,4,6.4,6.4,10.4,6.4c1.6,0,3.2,0,4.8-0.8c5.6-2.4,8-9.6,5.6-15.2l-8-16.8
		c-0.8-4-5.6-7.2-9.6-7.2h-89.6c-6.4,0-12,5.6-12,12C107.2,186.4,112,192,118.4,192z"/>
	<path style="fill:#FFFFFF;" d="M354.4,275.2c-4.8-4.8-12-4.8-16.8,0s-4.8,12,0,16.8l11.2,12H280l-9.6-19.2c-2.4-5.6-9.6-8-15.2-5.6
		s-8,9.6-5.6,15.2l12.8,26.4c1.6,4,6.4,7.2,10.4,7.2h76.8l-11.2,11.2c-4.8,4.8-4.8,11.2,0,16c2.4,2.4,5.6,3.2,8,3.2s5.6-1.6,8-3.2
		l31.2-31.2c2.4-2.4,3.2-4.8,3.2-8s-1.6-6.4-3.2-8L354.4,275.2z"/>
</g>
<g>
</g>
<g>
</g>
<g>
</g>
<g>
</g>
<g>
</g>
<g>
</g>
<g>
</g>
<g>
</g>
<g>
</g>
<g>
</g>
<g>
</g>
<g>
</g>
<g>
</g>
<g>
</g>
<g>
</g>
</svg>
